<svg id="Calque_1" data-name="Calque 1" xmlns="http://www.w3.org/2000/svg" viewBox="0 0 77.64 15.92"><defs><style>.cls-1{fill:#fff;}</style></defs><path class="cls-1" d="M22.7,2.65c0,.51-.62,1.49-1.87,2.94a23.14,23.14,0,0,1-3.65,3.47,14,14,0,0,1-2.77,4.29,8.52,8.52,0,0,1-3.86,2c2.85.76,4.55,1.2,5.12,1.33a7.75,7.75,0,0,0,1.61.19,3,3,0,0,0,2-.82l.12-.05s.06,0,.06.05-.19.31-.57.58a5.4,5.4,0,0,1-3.06.72A13.79,13.79,0,0,1,13,17.05c-.91-.19-2.3-.58-4.16-1.17a19.4,19.4,0,0,1-3.69.35c-2.25,0-3.37-.34-3.37-1s.86-1,2.57-1a26,26,0,0,1,6,1,6.35,6.35,0,0,0,2.11-1.37,20.27,20.27,0,0,0,2.31-3c-2.13,1.87-4.13,2.8-6,2.8a4.08,4.08,0,0,1-3-1.12,4.07,4.07,0,0,1-1.13-3A7.6,7.6,0,0,1,7.39,4a8.39,8.39,0,0,1,5.83-2.61,3.34,3.34,0,0,1,2.26.73,2.5,2.5,0,0,1,.84,2,7.07,7.07,0,0,1-2.06,4.55Q12.19,11,10.27,11a2,2,0,0,1-1.38-.51,1.68,1.68,0,0,1-.56-1.27,1.48,1.48,0,0,1,.36-1,1.06,1.06,0,0,1,.85-.43.59.59,0,0,1,.67.66.89.89,0,0,1-.26.62.77.77,0,0,1-.58.28q-.53,0-.51-.48c0-.21,0-.32-.07-.32s-.24.23-.24.67a1.45,1.45,0,0,0,.51,1.13,1.87,1.87,0,0,0,1.28.45q1.77,0,3.77-2.32a6.84,6.84,0,0,0,2-4.36,2.4,2.4,0,0,0-.76-1.82,2.71,2.71,0,0,0-1.94-.72Q10.57,1.6,8,4.45a8.72,8.72,0,0,0-2.61,5.93,2.9,2.9,0,0,0,.93,2.28,3.71,3.71,0,0,0,2.55.82,6.29,6.29,0,0,0,2.78-.68A18.49,18.49,0,0,0,15,10.4q1.68-2.82,2.45-3.92a18.89,18.89,0,0,1,1.75-2.13c1.33-1.39,2.34-2.08,3-2.08C22.55,2.27,22.7,2.4,22.7,2.65ZM8.51,15.77a21.41,21.41,0,0,0-5.12-1.19c-.94,0-1.41.21-1.41.62Q2,16,5.28,16A17.79,17.79,0,0,0,8.51,15.77Zm14-13.12c0-.15-.09-.23-.26-.23C21.73,2.42,21,3,20.08,4a22,22,0,0,0-2.75,4.69,26.49,26.49,0,0,0,3.51-3.45C22,4,22.52,3.1,22.52,2.65Z" transform="translate(-1.8 -1.41)"/><path class="cls-1" d="M22.26,12.87l-.11.17-.46.63c-1.35,1.87-2.38,2.81-3.09,2.81a1.13,1.13,0,0,1-.85-.36,1.28,1.28,0,0,1-.33-.9,4.35,4.35,0,0,1,.74-1.89l1.67-2.84a2.48,2.48,0,0,0,.53.07,6.23,6.23,0,0,0,.82-.07l-2.44,4a3,3,0,0,0-.53,1.35q0,.48.51.48c.63,0,1.76-1.14,3.36-3.41,0-.07.07-.11.11-.11A.06.06,0,0,1,22.26,12.87ZM22.1,8.42a1,1,0,0,1-.32.71.93.93,0,0,1-.69.32A.42.42,0,0,1,20.61,9a1,1,0,0,1,.33-.68,1,1,0,0,1,.7-.33A.41.41,0,0,1,22.1,8.42Z" transform="translate(-1.8 -1.41)"/><path class="cls-1" d="M28.28,12.84c0,.09-.22.37-.68.83a2.5,2.5,0,0,1-1.63,1,.91.91,0,0,1-.79-.51A10.7,10.7,0,0,1,23.62,16a1.86,1.86,0,0,1-1.21.51,1.26,1.26,0,0,1-.92-.38,1.28,1.28,0,0,1-.38-.92,4.18,4.18,0,0,1,.72-1.85l1.7-2.84.71,0a3.48,3.48,0,0,0,.63,0l-2.24,3.63a4.22,4.22,0,0,0-.75,1.69q0,.51.57.51a1.68,1.68,0,0,0,1.08-.48A15,15,0,0,0,25.12,14a1.85,1.85,0,0,1-.1-.57,4,4,0,0,1,.6-2c.4-.69.79-1,1.16-1,.18,0,.27.1.27.31,0,.54-.59,1.65-1.78,3.32a.73.73,0,0,0,.7.48c.54,0,1.21-.48,2-1.45.14-.17.24-.26.28-.26A0,0,0,0,1,28.28,12.84Z" transform="translate(-1.8 -1.41)"/><path class="cls-1" d="M34.4,12.87a3.81,3.81,0,0,1-.64.78,2.22,2.22,0,0,1-1.54.91c-.55,0-.82-.32-.82-1a3.25,3.25,0,0,1,.13-.76A6.94,6.94,0,0,0,30.43,14c-.28.39-.77,1.17-1.47,2.36l-.66,0-.66,0,1.76-2.85a8.74,8.74,0,0,0,1.33-2.67c0-.2-.09-.3-.25-.3-.4,0-1.13.77-2.19,2.32-.06.1-.12.15-.17.15s0,0,0-.07a.12.12,0,0,1,0-.08l.19-.27c1.11-1.47,1.86-2.21,2.25-2.21.58,0,.86.37.86,1.11a4.44,4.44,0,0,1-.88,2.19,8,8,0,0,1,1.07-1,5.46,5.46,0,0,1,1-1.61,1.65,1.65,0,0,1,1.09-.64c.22,0,.33.1.33.29,0,.34-.49.83-1.49,1.47l-.71.44-.13.11a2.93,2.93,0,0,0-.15.82c0,.6.23.9.68.9S33.41,14,34.07,13q.21-.24.27-.24S34.4,12.82,34.4,12.87Z" transform="translate(-1.8 -1.41)"/><path class="cls-1" d="M39.81,12.88a1.47,1.47,0,0,1-.2.27l-.46.58q-2.22,2.75-3.81,2.75a1.67,1.67,0,0,1-1.27-.54,1.91,1.91,0,0,1-.51-1.36q0-1.94,2.7-3.41a5.21,5.21,0,0,1,2.31-.77,1,1,0,0,1,.66.23.72.72,0,0,1,.27.56c0,.52-.34,1-1,1.32a13.43,13.43,0,0,1-3.37,1,3.55,3.55,0,0,0-.73,1.84c0,.62.33.93,1,.93q1.7,0,4.16-3.32c.09-.11.16-.17.21-.17A.07.07,0,0,1,39.81,12.88Zm-.91-2c0-.23-.13-.34-.38-.34a2.6,2.6,0,0,0-1.49.79,11.37,11.37,0,0,0-1.83,2.05,8.35,8.35,0,0,0,2.63-1.13C38.54,11.77,38.9,11.31,38.9,10.88Z" transform="translate(-1.8 -1.41)"/><path class="cls-1" d="M53.45,5.36q-4,6.41-5.09,8.19a7.06,7.06,0,0,0-1.06,2.29c0,.32.15.48.44.48q1,0,3.33-3.41c0-.07.08-.11.11-.11s.07,0,.07.07l-.11.17-.46.63c-1.36,1.87-2.36,2.81-3,2.81a1,1,0,0,1-.81-.37,1.41,1.41,0,0,1-.31-.95A3,3,0,0,1,47,13.82c-1.26,1.77-2.19,2.66-2.8,2.66A1.14,1.14,0,0,1,43.2,16a1.89,1.89,0,0,1-.39-1.23c0-1.18.73-2.25,2.2-3.21a5.65,5.65,0,0,1,2.75-1.15c.45,0,.67.21.67.64a1.57,1.57,0,0,1-.18.68L52.08,5.3a2.47,2.47,0,0,0,.7.1Zm-5.18,5.77c0-.38-.18-.57-.53-.57-.64,0-1.49.64-2.55,1.93a5.54,5.54,0,0,0-1.58,3.11c0,.48.19.72.59.72.57,0,1.55-1,2.95-3A5.26,5.26,0,0,0,48.27,11.13Z" transform="translate(-1.8 -1.41)"/><path class="cls-1" d="M57.14,5.52a2.46,2.46,0,0,1-.8,1.59,4.2,4.2,0,0,1-.79.64,1.59,1.59,0,0,1-.7.32c-.05,0-.07,0-.07-.06s0-.06.09-.09Q56,7.49,56,7s0-.07-.1-.07c-.33,0-.5-.15-.5-.46a1.4,1.4,0,0,1,.44-.9,1.24,1.24,0,0,1,.82-.47A.4.4,0,0,1,57.14,5.52Z" transform="translate(-1.8 -1.41)"/><path class="cls-1" d="M73.82,7.65A7,7,0,0,1,72.9,11a10.7,10.7,0,0,1-2.56,3.07A13.14,13.14,0,0,1,67,16.18a8.42,8.42,0,0,1-3.31.78,4.1,4.1,0,0,1-3.2-1.34,5,5,0,0,1-1.23-3.5,7.8,7.8,0,0,1,1.22-4,11.56,11.56,0,0,1,3.31-3.53A13.16,13.16,0,0,1,67.1,2.82a9.89,9.89,0,0,1,3.35-.67,3.64,3.64,0,0,1,2.37.72,2.35,2.35,0,0,1,.88,1.92A4.58,4.58,0,0,1,73.53,6,5,5,0,0,1,73.82,7.65Zm-.29-2.84a2.18,2.18,0,0,0-.76-1.74,3,3,0,0,0-2-.66,9.13,9.13,0,0,0-5,1.64,12.9,12.9,0,0,0-4,4.05,9.39,9.39,0,0,0-1.62,5.05,3.62,3.62,0,0,0,.94,2.59,3.2,3.2,0,0,0,2.42,1c2,0,4-1,6.05-3.1A10.75,10.75,0,0,0,73,7.17a7.11,7.11,0,0,1-1.3,1.52c-.63.58-1,.87-1.27.87-.06,0-.09,0-.09-.08s.06-.09.17-.15A5.92,5.92,0,0,0,73,6.77a2.88,2.88,0,0,0-.79-2.13,2.84,2.84,0,0,0-2.13-.79c-1.66,0-3.36.88-5.11,2.66S62.33,10,62.33,11.7a2.7,2.7,0,0,0,.47,1.64,1.49,1.49,0,0,0,1.25.63,1.43,1.43,0,0,0,.74-.22q.39-.21.39-.42s0-.06-.05-.06l-.09,0a.57.57,0,0,1-.42.13c-.34,0-.51-.2-.51-.59a.81.81,0,0,1,.25-.61A.78.78,0,0,1,65,12c.46,0,.69.25.69.76a1.29,1.29,0,0,1-.49,1,1.72,1.72,0,0,1-1.15.42,1.9,1.9,0,0,1-1.54-.76,2.88,2.88,0,0,1-.61-1.89q0-2.62,2.73-5.23a8,8,0,0,1,5.47-2.6,4,4,0,0,1,2.1.55A2.84,2.84,0,0,1,73.4,5.67,2.8,2.8,0,0,0,73.53,4.81Z" transform="translate(-1.8 -1.41)"/><path class="cls-1" d="M79.44,12.87a4.12,4.12,0,0,1-.65.78,2.22,2.22,0,0,1-1.54.91c-.54,0-.82-.32-.82-1a3.25,3.25,0,0,1,.13-.76A6.94,6.94,0,0,0,75.46,14c-.28.39-.77,1.17-1.47,2.36l-.66,0-.66,0,1.77-2.85a8.6,8.6,0,0,0,1.32-2.67c0-.2-.09-.3-.25-.3-.4,0-1.13.77-2.19,2.32-.06.1-.12.15-.17.15s0,0,0-.07a.2.2,0,0,1,0-.08l.2-.27c1.1-1.47,1.85-2.21,2.24-2.21.58,0,.86.37.86,1.11a4.44,4.44,0,0,1-.88,2.19,8.67,8.67,0,0,1,1.07-1,5.46,5.46,0,0,1,1-1.61,1.65,1.65,0,0,1,1.09-.64c.22,0,.34.1.34.29q0,.51-1.5,1.47l-.71.44-.13.11a2.93,2.93,0,0,0-.15.82c0,.6.23.9.68.9S78.44,14,79.1,13q.23-.24.27-.24A.06.06,0,0,1,79.44,12.87Z" transform="translate(-1.8 -1.41)"/></svg>